<svg xmlns="http://www.w3.org/2000/svg" version="1.1" xmlns:xlink="http://www.w3.org/1999/xlink" xmlns:svgjs="http://svgjs.dev/svgjs" width="1000" height="750" viewBox="0 0 1000 750"><rect width="1000" height="750" fill="#c9efc7"></rect><g transform="matrix(0.834,0,0,0.834,82.49454545454546,115.4193570850203)"><svg viewBox="0 0 396 247" data-background-color="#c9efc7" preserveAspectRatio="xMidYMid meet" height="623" width="1000" xmlns="http://www.w3.org/2000/svg" xmlns:xlink="http://www.w3.org/1999/xlink"><g id="tight-bounds" transform="matrix(1,0,0,1,0.2400000000000091,-0.09999999999999432)"><svg viewBox="0 0 395.52 247.2" height="247.2" width="395.52"><g><svg></svg></g><g><svg viewBox="0 0 395.52 247.2" height="247.2" width="395.52"><g transform="matrix(1,0,0,1,75.54432,60.40893818181818)"><svg viewBox="0 0 244.43135999999998 126.38212363636363" height="126.38212363636363" width="244.43135999999998"><g><svg viewBox="0 0 244.43135999999998 126.38212363636363" height="126.38212363636363" width="244.43135999999998"><g><svg viewBox="0 0 244.43135999999998 126.38212363636363" height="126.38212363636363" width="244.43135999999998"><g><svg viewBox="0 0 244.43135999999998 126.38212363636363" height="126.38212363636363" width="244.43135999999998"><g id="textblocktransform"><svg viewBox="0 0 244.43135999999998 126.38212363636363" height="126.38212363636363" width="244.43135999999998" id="textblock"><g><svg viewBox="0 0 244.43135999999998 126.38212363636363" height="126.38212363636363" width="244.43135999999998"><g transform="matrix(1,0,0,1,0,0)"><svg width="244.43135999999998" viewBox="1.1700000762939453 -35.54999923706055 68.75 35.54999923706055" height="126.38212363636363" data-palette-color="#454545"><path d="M24.78-35.55L31.49-8.79 36.96-35.55 43.09-35.55 34.89 0 28.98 0 22.22-25.95 15.31 0 9.38 0 1.17-35.55 7.3-35.55 12.82-8.84 19.6-35.55 24.78-35.55ZM53.78-35.55L53.78-4.93 69.92-4.93 69.92 0 47.6 0 47.6-35.55 53.78-35.55Z" opacity="1" transform="matrix(1,0,0,1,0,0)" fill="#454545" class="undefined-text-0" data-fill-palette-color="primary" id="text-0"></path></svg></g></svg></g></svg></g></svg></g></svg></g></svg></g></svg></g><path d="M243.164 54.409L243.164 7.659 11.283 7.659 11.283 239.541 243.164 239.541 243.164 192.791 231.767 192.791 231.767 228.144 22.68 228.144 22.68 19.056 231.767 19.056 231.767 54.409Z" fill="#454545" stroke="transparent" data-fill-palette-color="primary"></path></svg></g><defs></defs></svg><rect width="395.52" height="247.2" fill="none" stroke="none" visibility="hidden"></rect></g></svg></g></svg>